# xmcd CD database file
#
# Track frame offsets:
#	150
#	21670
#	35695
#	51620
#	69055
#	92120
#	113515
#	143035
#	157725
#
# Disc length: 2279 seconds
#
# Revision: 0
# Processed by: cddbd v1.5.1PL2 Copyright (c) Steve Scherf et al.
# Submitted via: CDex 1.51
#
DISCID=7308e509
DTITLE=Bei Xu - Bei Xu
DYEAR=2006
DGENRE=Jazz
TTITLE0=So Far Away
TTITLE1=How Can You Let Me Be Sad
TTITLE2=Comes Love
TTITLE3=Old Devil Moon
TTITLE4=She
TTITLE5=I Can't Give You Anything But Love
TTITLE6=Black Coffee
TTITLE7=The Old Country
TTITLE8=Will You Still Love Me Tomorrow?
EXTD=YEAR: 2006
EXTT0=
EXTT1=
EXTT2=
EXTT3=
EXTT4=
EXTT5=
EXTT6=
EXTT7=
EXTT8=
PLAYORDER=
